<svg width="1024" height="1024" viewBox="0 0 1024 1024" fill="none" xmlns="http://www.w3.org/2000/svg">
  <rect width="1024" height="1024" rx="224" fill="#0f172a"/>
  <path d="M182 666C278 454 406 340 564 324C678 313 769 354 842 447V719H182V666Z" fill="#22c55e" opacity="0.95"/>
  <path d="M182 616C292 415 428 310 590 303C697 299 781 342 842 430V575C751 472 655 429 554 447C414 471 298 560 205 713L182 754V616Z" fill="#38bdf8"/>
  <path d="M216 718C330 552 452 472 582 478C684 482 770 535 842 636V756H182L216 718Z" fill="#f8fafc" opacity="0.92"/>
  <path d="M318 318H590C643 318 686 361 686 414V570C686 623 643 666 590 666H459L357 746V666H318C265 666 222 623 222 570V414C222 361 265 318 318 318Z" fill="#ffffff"/>
  <path d="M438 424L513 594H464L452 561H385L373 594H326L399 424H438ZM399 522H438L419 470L399 522Z" fill="#0f172a"/>
  <path d="M560 426H624V463H598V502H635V539H598V595H558V539H522V502H558V463H529V426H560Z" fill="#0f172a"/>
  <path d="M590 278C590 249 613 226 642 226C613 226 590 203 590 174C590 203 567 226 538 226C567 226 590 249 590 278Z" fill="#facc15"/>
  <path d="M724 350C724 329 741 312 762 312C741 312 724 295 724 274C724 295 707 312 686 312C707 312 724 329 724 350Z" fill="#facc15"/>
</svg>
