<svg width="64" height="64" viewBox="0 0 64 64" fill="none" xmlns="http://www.w3.org/2000/svg">
  <path d="M31.8 48H23.4L21.4 41.8H11.5L9.5 48H1.6L13.8 16H19.7L31.8 48ZM13.8 34.8H19.2L16.5 24.9L13.8 34.8Z" fill="#000000"/>
  <path d="M45.2 48.6C40.2 48.6 36.5 45.8 36.5 41.5C36.5 36.6 40.7 34 48.4 34H51.7V33.2C51.7 30.5 50.2 29.2 47.3 29.2C44.9 29.2 43.3 30.3 42.6 32.2H36.5C37.2 27 41.5 23.9 47.6 23.9C54.5 23.9 58.8 27.5 58.8 33.6V48H52.2V45.2C50.7 47.4 48.3 48.6 45.2 48.6ZM47 43.5C49.8 43.5 51.7 42.1 51.7 39.6V38.6H48.4C44.7 38.6 43 39.4 43 41.1C43 42.6 44.3 43.5 47 43.5Z" fill="#000000"/>
</svg>
